<?xml version="1.0" standalone="no"?><!DOCTYPE svg PUBLIC "-//W3C//DTD SVG 1.1//EN" "http://www.w3.org/Graphics/SVG/1.1/DTD/svg11.dtd"><svg t="1698146498164" class="icon" viewBox="0 0 1024 1024" version="1.1" xmlns="http://www.w3.org/2000/svg" p-id="7591" xmlns:xlink="http://www.w3.org/1999/xlink" width="200" height="200"><path d="M854.857 992H169.143C93.403 992 32 930.596 32 854.857V169.143C32 93.403 93.404 32 169.143 32h685.714C930.596 32 992 93.404 992 169.143v685.714C992 930.596 930.596 992 854.857 992z" fill="#FFEBEB" p-id="7592"></path><path d="M579.49 805.5h-68c-3.31 0-6-2.69-6-6v-516c0-3.31 2.69-6 6-6h68c3.31 0 6 2.69 6 6v516c0 3.32-2.69 6-6 6z" fill="#FFFFFF" p-id="7593"></path><path d="M612.87 629.25H478.1c-11.05 0-20-8.95-20-20s8.95-20 20-20h134.78c11.05 0 20 8.95 20 20s-8.96 20-20.01 20zM612.87 701.08H478.1c-11.05 0-20-8.95-20-20s8.95-20 20-20h134.78c11.05 0 20 8.95 20 20s-8.96 20-20.01 20z" fill="#FFB9B3" p-id="7594"></path><path d="M803.49 805.5h-68c-3.31 0-6-2.69-6-6v-516c0-3.31 2.69-6 6-6h68c3.31 0 6 2.69 6 6v516c0 3.32-2.69 6-6 6z" fill="#FFFFFF" p-id="7595"></path><path d="M835.39 629.25H700.61c-11.05 0-20-8.95-20-20s8.95-20 20-20h134.78c11.05 0 20 8.95 20 20s-8.96 20-20 20zM835.39 701.08H700.61c-11.05 0-20-8.95-20-20s8.95-20 20-20h134.78c11.05 0 20 8.95 20 20s-8.96 20-20 20z" fill="#FFB9B3" p-id="7596"></path><path d="M585.49 829.5h-80c-26.47 0-48-21.53-48-48v-528c0-26.47 21.53-48 48-48h80c26.47 0 48 21.53 48 48v528c0 26.47-21.54 48-48 48z m-80-564v504c0 6.63 5.37 12 12 12h56.03c6.63 0 12-5.37 12-12l-0.03-504c0-6.63-5.37-12-12-12h-56c-6.63 0-12 5.38-12 12z" fill="#1F4CA4" p-id="7597"></path><path d="M279.37 829.22l-77.27-20.71c-25.56-6.85-40.79-33.22-33.94-58.79l136.66-510.01c6.85-25.57 33.22-40.79 58.79-33.94l77.27 20.71c12.38 3.32 22.73 11.26 29.15 22.36 6.41 11.1 8.11 24.04 4.8 36.42L338.16 795.28l-46.36-12.42 136.66-510.01-77.27-20.71-136.67 510.02 77.27 20.7-12.42 46.36z" fill="#1F4CA4" p-id="7598"></path><path d="M310 805.311l-65.68-17.6a6 6 0 0 1-4.24-7.35l133.55-498.42a6 6 0 0 1 7.35-4.24l65.68 17.6a6 6 0 0 1 4.24 7.35l-133.55 498.42c-0.85 3.2-4.14 5.1-7.35 4.24z" fill="#FFFFFF" p-id="7599"></path><path d="M291.54 828.56c-4.1 0-7.95 0.83-12.17 0.66l-77.27-20.71c-25.56-6.85-40.79-33.22-33.94-58.79l136.66-510.01c6.85-25.57 33.22-40.79 58.79-33.94l77.27 20.71c12.38 3.32 22.73 11.26 29.15 22.36 6.41 11.1 8.11 24.04 4.8 36.42L338.16 795.28c-5.74 21.42-25.43 33.28-46.62 33.28z m56.53-564.82L217.63 750.56c-1.72 6.4 2.08 12.98 8.49 14.7 0 0 35.26 9.45 54.12 14.5 6.4 1.72 12.98-2.08 14.7-8.49l130.42-486.83c1.71-6.4-2.08-12.98-8.49-14.7l-54.09-14.49c-6.41-1.71-12.99 2.09-14.71 8.49zM809.49 824.16h-80c-26.47 0-48-21.53-48-48v-528c0-26.47 21.53-48 48-48h80c26.47 0 48 21.53 48 48v528c0 26.47-21.54 48-48 48z m-80-564v504c0 6.63 5.37 12 12 12h56.03c6.63 0 12-5.37 12-12l-0.03-504c0-6.63-5.37-12-12-12h-56c-6.63 0-12 5.38-12 12z" fill="#1F4CA4" p-id="7600"></path><path d="M866.69 829.5h-704c-13.25 0-24-10.75-24-24s10.75-24 24-24h704c13.25 0 24 10.75 24 24s-10.74 24-24 24z" fill="#1F4CA4" p-id="7601"></path></svg>